HIERARCHY
ROOT Hips
{
	OFFSET 0.000000 0.000000 0.000000
	CHANNELS 6 Xposition Yposition Zposition Xrotation Yrotation Zrotation
	JOINT LeftUpLeg_virtual
	{
		OFFSET 0.000000 0.000000 0.000000
		CHANNELS 3 Xrotation Yrotation Zrotation
		JOINT LeftUpLeg
		{
			OFFSET 11.394100 -6.187798 -0.413800
			CHANNELS 3 Xrotation Yrotation Zrotation
			JOINT LeftLeg
			{
				OFFSET 0.430247 -32.302673 3.732800
				CHANNELS 3 Xrotation Yrotation Zrotation
				JOINT LeftFoot
				{
					OFFSET -0.430247 -48.264931 -6.423300
					CHANNELS 3 Xrotation Yrotation Zrotation
					JOINT LeftToeBase
					{
						OFFSET 4.230900 -16.068199 23.438400
						CHANNELS 3 Xrotation Yrotation Zrotation
						JOINT LeftToe_End
						{
							OFFSET 4.510700 0.695400 19.974600
							CHANNELS 3 Xrotation Yrotation Zrotation
							End Site
							{
								OFFSET 0 0 0
							}
						}
					}
				}
			}
		}
	}
	JOINT RightUpLeg_virtual
	{
		OFFSET 0.000000 0.000000 0.000000
		CHANNELS 3 Xrotation Yrotation Zrotation
		JOINT RightUpLeg
		{
			OFFSET -11.333700 -6.187798 -0.413800
			CHANNELS 3 Xrotation Yrotation Zrotation
			JOINT RightLeg
			{
				OFFSET -0.430392 -32.302628 3.733000
				CHANNELS 3 Xrotation Yrotation Zrotation
				JOINT RightFoot
				{
					OFFSET 0.430392 -48.264973 -6.423500
					CHANNELS 3 Xrotation Yrotation Zrotation
					JOINT RightToeBase
					{
						OFFSET -4.230900 -16.068199 23.438400
						CHANNELS 3 Xrotation Yrotation Zrotation
						JOINT RightToe_End
						{
							OFFSET -4.510700 0.695400 19.974600
							CHANNELS 3 Xrotation Yrotation Zrotation
							End Site
							{
								OFFSET 0 0 0
							}
						}
					}
				}
			}
		}
	}
	JOINT Spine_virtual
	{
		OFFSET 0.000000 0.000000 0.000000
		CHANNELS 3 Xrotation Yrotation Zrotation
		JOINT Spine
		{
			OFFSET -0.002400 12.777504 0.315300
			CHANNELS 3 Xrotation Yrotation Zrotation
			JOINT Spine1
			{
				OFFSET -0.002067 5.816869 0.032633
				CHANNELS 3 Xrotation Yrotation Zrotation
				JOINT Spine1_split
				{
					OFFSET -0.002067 5.816869 0.032633
					CHANNELS 3 Xrotation Yrotation Zrotation
					JOINT Spine2
					{
						OFFSET -0.002067 5.816869 0.032633
						CHANNELS 3 Xrotation Yrotation Zrotation
						JOINT Neck_virtual
						{
							OFFSET 0.000000 0.000000 0.000000
							CHANNELS 3 Xrotation Yrotation Zrotation
							JOINT Neck
							{
								OFFSET -0.003700 21.199493 -0.826900
								CHANNELS 3 Xrotation Yrotation Zrotation
								JOINT Head
								{
									OFFSET 0.000000 20.442200 4.834800
									CHANNELS 3 Xrotation Yrotation Zrotation
									JOINT HeadTop_End
									{
										OFFSET 0.000000 34.668396 4.968400
										CHANNELS 3 Xrotation Yrotation Zrotation
										End Site
										{
											OFFSET 0 0 0
										}
									}
								}
							}
						}
						JOINT LeftShoulder_virtual
						{
							OFFSET 0.000000 0.000000 0.000000
							CHANNELS 3 Xrotation Yrotation Zrotation
							JOINT LeftShoulder
							{
								OFFSET 3.288150 8.794197 -1.372250
								CHANNELS 3 Xrotation Yrotation Zrotation
								JOINT LeftShoulder_split
								{
									OFFSET 3.288150 8.794197 -1.372250
									CHANNELS 3 Xrotation Yrotation Zrotation
									JOINT LeftArm
									{
										OFFSET 11.953299 -2.279007 -0.146200
										CHANNELS 3 Xrotation Yrotation Zrotation
										JOINT LeftForeArm
										{
											OFFSET 18.448900 0.000000 0.000000
											CHANNELS 3 Xrotation Yrotation Zrotation
											JOINT LeftHand
											{
												OFFSET 29.527798 0.000000 0.000000
												CHANNELS 3 Xrotation Yrotation Zrotation
												End Site
												{
													OFFSET 0 0 0
												}
											}
										}
									}
								}
							}
						}
						JOINT RightShoulder_virtual
						{
							OFFSET 0.000000 0.000000 0.000000
							CHANNELS 3 Xrotation Yrotation Zrotation
							JOINT RightShoulder
							{
								OFFSET -3.249400 8.794197 -1.372250
								CHANNELS 3 Xrotation Yrotation Zrotation
								JOINT RightShoulder_split
								{
									OFFSET -3.249400 8.794197 -1.372250
									CHANNELS 3 Xrotation Yrotation Zrotation
									JOINT RightArm
									{
										OFFSET -11.953299 -2.279007 -0.146200
										CHANNELS 3 Xrotation Yrotation Zrotation
										JOINT RightForeArm
										{
											OFFSET -18.448900 0.000000 0.000000
											CHANNELS 3 Xrotation Yrotation Zrotation
											JOINT RightHand
											{
												OFFSET -29.527802 0.000000 0.000000
												CHANNELS 3 Xrotation Yrotation Zrotation
												End Site
												{
													OFFSET 0 0 0
												}
											}
										}
									}
								}
							}
						}
					}
				}
			}
		}
	}
}
MOTION
Frames: 8
Frame Time: 0.03333333
14.265395 18.373192 -8.624367 0.000000 0.000000 0.000000 -79.422259 60.263258 -8.068417 -99.410180 2.960497 10.414155 91.286421 5.334971 -4.060470 15.859380 0.054176 5.000820 7.608147 0.702595 0.080188 0.000000 0.000000 0.000000 -87.241221 66.105112 -0.580461 -28.883504 11.679164 8.760460 79.675495 -4.787712 -2.125548 30.226486 -2.915202 5.611269 -8.649336 0.358654 0.815296 0.000000 0.000000 0.000000 -77.574160 62.354013 -11.441806 15.376457 -6.611081 -6.558153 11.362908 -4.145873 -4.903502 0.728927 0.165337 0.493406 0.000000 0.000000 0.000000 10.144690 -5.397525 -3.511734 -3.210380 6.408779 -17.096339 -28.738181 13.548940 -14.140156 0.000000 0.000000 0.000000 10.398201 -4.784638 -4.076914 3.546416 -7.743338 30.527158 -3.246561 -0.367500 -0.937599 -89.265457 26.315274 -57.263022 2.306898 -30.003320 1.086583 0.000000 0.000000 0.000000 11.389786 -4.934303 -3.824692 5.203139 11.657461 -17.683199 14.590927 3.510194 0.084300 -47.310845 33.337436 105.130996 175.694841 73.078257 -175.526737 0.000000 0.000000 0.000000 
14.330272 18.385010 -8.785732 0.000000 0.000000 0.000000 -78.892114 60.144583 -8.326942 -99.626601 3.108998 10.486418 90.950430 5.129829 -4.084247 15.663217 -0.369041 4.901471 7.604610 0.675805 0.345052 0.000000 0.000000 0.000000 -86.616354 65.762154 -1.331674 -28.936892 11.460165 8.765323 79.894826 -4.815844 -2.167738 30.266347 -2.873524 5.552881 -8.706600 0.405098 0.741753 0.000000 0.000000 0.000000 -77.167347 62.286708 -11.560537 15.262806 -6.585107 -6.503562 11.375328 -4.224992 -4.845348 0.904467 0.486175 0.374792 0.000000 0.000000 0.000000 10.005301 -5.500199 -3.476696 -3.109394 6.343400 -17.123286 -28.577290 13.244101 -14.174832 0.000000 0.000000 0.000000 10.402191 -4.869086 -3.982074 3.420704 -7.571111 30.221152 -2.830038 -0.627548 -0.401944 -89.242664 26.057168 -57.466275 2.234452 -30.255313 0.915136 0.000000 0.000000 0.000000 11.338878 -5.038358 -3.779867 5.179041 11.733171 -17.436401 14.953675 3.456420 0.142972 -47.347800 33.351397 105.263433 175.842865 72.999409 -175.652576 0.000000 0.000000 0.000000 
14.390992 18.393208 -8.947590 0.000000 0.000000 0.000000 -78.583915 60.040573 -8.480336 -99.810442 3.371021 10.672208 90.546759 4.890675 -4.153745 15.097875 -0.790094 4.944779 7.671845 0.633834 0.517282 0.000000 0.000000 0.000000 -86.022490 65.412312 -2.053428 -28.895556 11.266223 8.793643 80.076216 -4.759932 -2.247947 30.270623 -2.754497 5.741184 -8.929568 0.417212 0.642208 0.000000 0.000000 0.000000 -76.957456 62.354621 -11.454977 15.153666 -6.555745 -6.386258 11.357630 -4.325070 -4.736408 0.813995 0.831926 0.050773 0.000000 0.000000 0.000000 9.827667 -5.624549 -3.403337 -2.717484 6.181075 -17.299734 -28.356645 12.758419 -14.175014 0.000000 0.000000 0.000000 10.374901 -4.970200 -3.830116 3.218801 -7.319978 29.887552 -2.336244 -0.828623 0.284778 -89.006873 25.660386 -58.021993 2.326563 -29.915190 0.815915 0.000000 0.000000 0.000000 11.258011 -5.146572 -3.642653 5.095551 11.752350 -17.123926 15.114688 3.476137 0.129146 -47.255572 33.675442 105.262825 175.876470 73.358083 -175.770902 0.000000 0.000000 0.000000 
14.386926 18.415955 -9.044479 0.000000 0.000000 0.000000 -78.545420 60.001040 -8.448709 -99.898586 3.692594 10.935716 90.194868 4.663715 -4.253325 14.207582 -1.128304 5.188361 7.846539 0.578257 0.534319 0.000000 0.000000 0.000000 -85.570345 65.111722 -2.601971 -28.725023 11.090188 8.836584 80.050644 -4.676911 -2.383519 30.059365 -2.679658 6.062074 -9.153036 0.400374 0.569690 0.000000 0.000000 0.000000 -76.955864 62.566951 -11.141513 15.061013 -6.496422 -6.254402 11.297771 -4.406299 -4.612200 0.654400 1.137327 -0.208149 0.000000 0.000000 0.000000 9.640875 -5.726675 -3.319153 -2.108073 5.899524 -17.608859 -28.105766 12.154321 -14.162839 0.000000 0.000000 0.000000 10.296405 -5.052381 -3.662666 2.995513 -7.050362 29.567636 -2.034390 -0.794697 0.787957 -88.712293 25.098399 -58.678189 2.535851 -29.179862 0.778426 0.000000 0.000000 0.000000 11.140124 -5.222071 -3.475390 5.002250 11.661478 -16.855136 14.995532 3.632873 0.114769 -47.131608 34.271096 105.162483 175.904883 73.881323 -175.971204 0.000000 0.000000 0.000000 
14.347779 18.485352 -9.063721 0.000000 0.000000 0.000000 -78.693485 59.991867 -8.278504 -99.886387 3.968874 11.219025 89.903301 4.402468 -4.326953 13.163585 -1.411806 5.491470 8.058331 0.525634 0.416639 0.000000 0.000000 0.000000 -85.260070 64.850235 -2.944439 -28.506416 10.903693 8.851342 79.884540 -4.592279 -2.555855 29.715592 -2.682040 6.500571 -9.231014 0.354644 0.599389 0.000000 0.000000 0.000000 -77.186383 62.855560 -10.651640 14.979915 -6.386772 -6.144434 11.188757 -4.442802 -4.496367 0.608715 1.282525 -0.351615 0.000000 0.000000 0.000000 9.448969 -5.761676 -3.244311 -1.394773 5.522866 -18.007406 -27.900519 11.541524 -14.151443 0.000000 0.000000 0.000000 10.146210 -5.092543 -3.519985 2.810497 -6.853795 29.268074 -1.836446 -0.421021 1.110659 -88.453791 24.301190 -59.210384 2.776122 -28.385267 0.754113 0.000000 0.000000 0.000000 10.970525 -5.237188 -3.329194 4.936110 11.495093 -16.645606 14.613473 3.819618 0.122917 -46.914794 35.058637 104.973109 175.971177 74.304535 -176.241857 0.000000 0.000000 0.000000 
14.303958 18.601990 -9.094608 0.000000 0.000000 0.000000 -78.953572 59.980324 -8.030967 -99.811597 4.135591 11.445549 89.636753 4.100453 -4.353356 12.061855 -1.696436 5.815530 8.163516 0.480663 0.299557 0.000000 0.000000 0.000000 -85.255931 64.712327 -2.927295 -28.323994 10.655811 8.809514 79.760238 -4.506404 -2.701780 29.520805 -2.729928 7.157050 -9.280933 0.283882 0.748582 0.000000 0.000000 0.000000 -77.541553 63.125271 -10.087511 14.898186 -6.229772 -6.081287 11.033607 -4.428886 -4.413349 0.483136 1.158899 -0.363486 0.000000 0.000000 0.000000 9.287186 -5.718122 -3.184741 -0.721038 5.157957 -18.436082 -27.821394 11.001285 -14.149957 0.000000 0.000000 0.000000 9.916620 -5.067938 -3.440831 2.697954 -6.781893 28.988484 -1.743132 0.184210 1.120716 -88.282456 23.193425 -59.447248 3.037230 -27.866876 0.716601 0.000000 0.000000 0.000000 10.761893 -5.183779 -3.233579 4.926313 11.358178 -16.435404 14.127288 3.916380 0.120075 -46.656674 35.908736 104.775013 176.119542 74.420471 -176.561128 0.000000 0.000000 0.000000 
14.259080 18.727974 -9.150188 0.000000 0.000000 0.000000 -79.381374 59.961910 -7.672262 -99.719642 4.198072 11.576196 89.382082 3.718314 -4.276291 11.010551 -2.046293 6.118972 8.148963 0.449094 0.251685 0.000000 0.000000 0.000000 -85.694545 64.756013 -2.430879 -28.215677 10.291942 8.722024 79.764322 -4.396988 -2.792017 29.543884 -2.750824 8.186998 -9.570416 0.204844 0.943094 0.000000 0.000000 0.000000 -78.075838 63.360632 -9.427849 14.843934 -6.052980 -6.071674 10.864072 -4.367182 -4.373538 0.412136 0.747004 -0.179359 0.000000 0.000000 0.000000 9.151418 -5.613977 -3.139933 -0.232172 4.877629 -18.855994 -27.857184 10.645010 -14.075205 0.000000 0.000000 0.000000 9.625444 -4.994245 -3.435238 2.654714 -6.859763 28.711889 -1.843825 0.882472 0.828597 -87.982979 21.757511 -59.487212 3.208674 -27.860944 0.621646 0.000000 0.000000 0.000000 10.519337 -5.075845 -3.182927 5.007282 11.400953 -16.136675 13.572982 3.863061 0.124894 -46.414066 36.745393 104.565347 176.503167 74.179440 -177.017480 0.000000 0.000000 0.000000 
14.264922 18.814262 -9.220192 0.000000 0.000000 0.000000 -79.904423 59.988377 -7.207580 -99.710366 4.138781 11.603902 89.248128 3.244171 -4.069689 10.230630 -2.470994 6.321442 8.063913 0.440236 0.255160 0.000000 0.000000 0.000000 -86.539876 64.905485 -1.570199 -28.152078 9.806804 8.603822 79.951749 -4.241186 -2.827305 29.491763 -2.743904 9.499670 -10.012593 0.155122 1.090159 0.000000 0.000000 0.000000 -78.765359 63.502222 -8.781289 14.816922 -5.897663 -6.076381 10.705623 -4.300200 -4.375145 0.432341 0.199825 -0.044190 0.000000 0.000000 0.000000 9.030357 -5.493584 -3.095479 -0.041626 4.774648 -19.214640 -27.953184 10.470899 -13.840245 0.000000 0.000000 0.000000 9.312115 -4.904645 -3.497130 2.656014 -7.062989 28.369269 -1.970939 1.520899 0.466324 -87.564145 20.092251 -59.503433 3.349302 -28.269624 0.475465 0.000000 0.000000 0.000000 10.280675 -4.944890 -3.148369 5.167504 11.766042 -15.616138 12.991234 3.590982 0.053681 -46.173896 37.385102 104.297344 177.096000 73.758523 -177.558076 0.000000 0.000000 0.000000 
